<svg xmlns="http://www.w3.org/2000/svg" width="512" height="512" viewBox="0 0 512 512" version="1.1"><path d="M 161.103 209.169 C 158.846 213.832, 157 217.951, 157 218.323 C 157 218.695, 164.765 219, 174.256 219 C 183.747 219, 197.330 219.681, 204.441 220.512 C 256.446 226.596, 306.070 249.835, 344.285 286.002 C 349.667 291.095, 354.236 295.091, 354.437 294.881 C 354.981 294.316, 358.634 282.943, 359.417 279.376 C 360.038 276.553, 359.599 275.834, 354.298 270.982 C 314.211 234.292, 266.540 211.697, 212 203.536 C 206.225 202.672, 193.334 201.679, 183.353 201.329 L 165.206 200.693 161.103 209.169" stroke="none" fill="#ffffff" fill-rule="evenodd"/><path d="M 223.564 1.625 C 189.086 6.040, 148.775 20.362, 120.811 38.132 C 97.183 53.146, 71.822 75.703, 55.750 96 C 26.218 133.295, 7.275 178.358, 1.536 224.970 C -0.429 240.920, -0.439 269.756, 1.512 286.441 C 8.959 350.103, 42.358 411.798, 91.313 452.322 C 130.029 484.371, 177.268 504.839, 225.559 510.488 C 242.111 512.424, 269.889 512.424, 286.441 510.488 C 349.786 503.078, 410.477 470.394, 451.687 421.500 C 482.929 384.431, 505.392 333.429, 510.078 288.923 C 510.681 283.191, 511.586 277.719, 512.088 276.764 C 512.589 275.809, 512.964 265.459, 512.921 253.764 C 512.878 242.069, 512.566 233.175, 512.229 234 C 511.891 234.825, 511.041 230.441, 510.338 224.258 C 505.075 177.912, 483.965 129.538, 452.322 91.313 C 411.946 42.537, 350.948 9.406, 287.030 1.536 C 271.561 -0.369, 238.774 -0.323, 223.564 1.625 M 252.500 100.968 C 250.850 101.345, 248.375 102.256, 247 102.993 C 245.625 103.730, 195.412 137.060, 135.416 177.058 C 46.448 236.372, 26.101 250.343, 25.076 252.818 C 23.803 255.889, 24.290 259.306, 26.372 261.910 C 28.017 263.967, 245.790 409.014, 249.664 410.633 C 254.102 412.487, 258.703 412.318, 263.538 410.122 C 268.410 407.909, 480.355 266.831, 484.201 263.241 C 487.404 260.251, 488.466 256.356, 487.076 252.699 C 486.310 250.686, 459.834 232.560, 376.721 177.148 C 316.580 137.051, 266.052 103.579, 264.437 102.765 C 260.517 100.791, 256.156 100.134, 252.500 100.968 M 0.426 255.500 C 0.427 267.600, 0.571 272.413, 0.747 266.195 C 0.923 259.977, 0.922 250.077, 0.746 244.195 C 0.569 238.313, 0.425 243.400, 0.426 255.500" stroke="none" fill="#00c85f" fill-rule="evenodd"/><path d="M 239 151.452 C 216.368 155.168, 195.432 166.338, 179.330 183.290 C 173.324 189.612, 166 198.944, 166 200.273 C 166 200.500, 173.988 200.975, 183.750 201.329 C 247.779 203.653, 303.318 225.948, 351.704 268.752 L 359.908 276.009 360.698 272.254 C 361.974 266.195, 361.608 244.092, 360.106 236.500 C 355.607 213.758, 344.750 194.354, 327.516 178.255 C 313.878 165.516, 296.361 156.415, 277.786 152.421 C 267.524 150.214, 249.313 149.759, 239 151.452 M 156.014 221.464 C 149.974 237.349, 148.544 259.855, 152.418 278.054 C 159.989 313.620, 186.706 343.898, 221 355.777 C 233.924 360.254, 241.980 361.512, 257 361.397 C 272.209 361.282, 280.288 359.809, 294.028 354.648 C 317.751 345.737, 339.429 326.098, 350.690 303.313 L 354.451 295.703 344.576 286.297 C 306.522 250.053, 256.590 226.613, 204.441 220.512 C 197.330 219.681, 183.736 219, 174.231 219 L 156.950 219 156.014 221.464" stroke="none" fill="#4b82e1" fill-rule="evenodd"/><path d="M 249.437 102.412 C 243.902 104.823, 27.131 249.886, 26.053 251.901 C 24.654 254.514, 24.769 259.115, 26.282 261.090 C 26.952 261.965, 77.567 296.052, 138.760 336.840 C 212.182 385.779, 250.952 411.051, 252.760 411.151 C 257.725 411.424, 261.426 410.831, 264.421 409.282 C 270.017 406.389, 482.809 264.121, 484.903 261.874 C 487.170 259.440, 487.631 255.047, 485.947 251.901 C 484.812 249.780, 267.765 104.635, 262.336 102.367 C 258.251 100.660, 253.421 100.677, 249.437 102.412 M 239 151.452 C 228.816 153.124, 213.442 158.462, 204.652 163.378 C 189.606 171.792, 174.272 186.529, 165.608 200.901 C 160.138 209.975, 154.611 223.832, 152.225 234.454 C 150.080 244.001, 150.080 267.999, 152.225 277.546 C 160.458 314.200, 186.505 343.828, 221 355.777 C 233.924 360.254, 241.980 361.512, 257 361.397 C 272.209 361.282, 280.288 359.809, 294.028 354.648 C 306.155 350.093, 317.568 343.006, 327.280 334 C 359.536 304.088, 370.125 260.280, 355.070 219.029 C 349.364 203.394, 340.695 190.566, 327.516 178.255 C 313.878 165.516, 296.361 156.415, 277.786 152.421 C 267.524 150.214, 249.313 149.759, 239 151.452" stroke="none" fill="#faf354" fill-rule="evenodd"/><path d="" stroke="none" fill="#04cc5b" fill-rule="evenodd"/></svg>